<svg width="13" height="13" viewBox="0 0 13 13" fill="none" xmlns="http://www.w3.org/2000/svg">
<path fill-rule="evenodd" clip-rule="evenodd" d="M5.66667 1.33285C4.51739 1.33285 3.41519 1.7894 2.60254 2.60206C1.78988 3.41471 1.33333 4.51691 1.33333 5.66618C1.33333 6.81546 1.78988 7.91766 2.60254 8.73031C3.41519 9.54297 4.51739 9.99952 5.66667 9.99952C6.81594 9.99952 7.91814 9.54297 8.7308 8.73031C9.54345 7.91766 10 6.81546 10 5.66618C10 4.51691 9.54345 3.41471 8.7308 2.60206C7.91814 1.7894 6.81594 1.33285 5.66667 1.33285ZM1.27791e-08 5.66618C7.69944e-05 4.76258 0.216243 3.87209 0.630463 3.06902C1.04468 2.26595 1.64494 1.57358 2.38117 1.04968C3.11739 0.525771 3.96823 0.185525 4.8627 0.0573235C5.75716 -0.0708776 6.66931 0.0166842 7.52305 0.312703C8.3768 0.608723 9.14737 1.10462 9.77048 1.75901C10.3936 2.4134 10.8512 3.20732 11.1051 4.07453C11.3589 4.94173 11.4018 5.85708 11.2299 6.7442C11.0581 7.63132 10.6766 8.46448 10.1173 9.17419L12.552 11.6089C12.6734 11.7346 12.7406 11.903 12.7391 12.0778C12.7376 12.2526 12.6675 12.4198 12.5439 12.5434C12.4203 12.667 12.2531 12.7371 12.0783 12.7386C11.9035 12.7402 11.7351 12.673 11.6093 12.5515L9.17467 10.1169C8.33908 10.7755 7.33493 11.1856 6.27715 11.3003C5.21937 11.4149 4.15068 11.2294 3.1934 10.765C2.23611 10.3006 1.4289 9.57611 0.864154 8.67439C0.299404 7.77266 -7.14289e-05 6.73016 1.27791e-08 5.66618ZM5 3.33285C5 3.15604 5.07024 2.98647 5.19526 2.86145C5.32029 2.73642 5.48986 2.66618 5.66667 2.66618C6.46232 2.66618 7.22538 2.98226 7.78799 3.54486C8.3506 4.10747 8.66667 4.87054 8.66667 5.66618C8.66667 5.843 8.59643 6.01257 8.4714 6.13759C8.34638 6.26261 8.17681 6.33285 8 6.33285C7.82319 6.33285 7.65362 6.26261 7.5286 6.13759C7.40357 6.01257 7.33333 5.843 7.33333 5.66618C7.33333 5.22416 7.15774 4.80023 6.84518 4.48767C6.53262 4.17511 6.10869 3.99952 5.66667 3.99952C5.48986 3.99952 5.32029 3.92928 5.19526 3.80426C5.07024 3.67923 5 3.50966 5 3.33285Z" fill="#A5A5A9"/>
</svg>
