<svg width="13" height="12" viewBox="0 0 13 12" fill="none" xmlns="http://www.w3.org/2000/svg">
<path d="M0 0H9.603C10.2642 0 10.8 0.5388 10.8 1.194V10.806C10.8 11.4654 10.2642 12 9.603 12H0V0ZM2.4 1.2H1.2V10.8H2.4V1.2ZM3.6 10.8H9.6V1.2H3.6V10.8ZM4.8 8.4C4.8 7.92261 4.98964 7.46477 5.32721 7.12721C5.66477 6.78964 6.12261 6.6 6.6 6.6C7.07739 6.6 7.53523 6.78964 7.87279 7.12721C8.21036 7.46477 8.4 7.92261 8.4 8.4H4.8ZM6.6 6C6.28174 6 5.97652 5.87357 5.75147 5.64853C5.52643 5.42348 5.4 5.11826 5.4 4.8C5.4 4.48174 5.52643 4.17652 5.75147 3.95147C5.97652 3.72643 6.28174 3.6 6.6 3.6C6.91826 3.6 7.22348 3.72643 7.44853 3.95147C7.67357 4.17652 7.8 4.48174 7.8 4.8C7.8 5.11826 7.67357 5.42348 7.44853 5.64853C7.22348 5.87357 6.91826 6 6.6 6ZM11.4 2.4H12.6V4.8H11.4V2.4ZM11.4 6H12.6V8.4H11.4V6Z" fill="#88878D"/>
</svg>
