<svg width="30" height="30" viewBox="0 0 30 30" fill="none" xmlns="http://www.w3.org/2000/svg">
<path fill-rule="evenodd" clip-rule="evenodd" d="M5 11.25C5.24864 11.25 5.4871 11.3488 5.66291 11.5246C5.83873 11.7004 5.9375 11.9389 5.9375 12.1875V13.4375C5.9375 14.6276 6.17191 15.8061 6.62734 16.9056C7.08277 18.0051 7.75031 19.0041 8.59185 19.8457C9.43338 20.6872 10.4324 21.3547 11.5319 21.8102C12.6314 22.2656 13.8099 22.5 15 22.5C16.1901 22.5 17.3686 22.2656 18.4681 21.8102C19.5676 21.3547 20.5666 20.6872 21.4082 19.8457C22.2497 19.0041 22.9172 18.0051 23.3727 16.9056C23.8281 15.8061 24.0625 14.6276 24.0625 13.4375V12.1875C24.0625 11.9389 24.1613 11.7004 24.3371 11.5246C24.5129 11.3488 24.7514 11.25 25 11.25C25.2486 11.25 25.4871 11.3488 25.6629 11.5246C25.8387 11.7004 25.9375 11.9389 25.9375 12.1875V13.4375C25.9376 16.1761 24.9103 18.815 23.0587 20.8328C21.2071 22.8505 18.666 24.1003 15.9375 24.335V27.1875C15.9375 27.4361 15.8387 27.6746 15.6629 27.8504C15.4871 28.0262 15.2486 28.125 15 28.125C14.7514 28.125 14.5129 28.0262 14.3371 27.8504C14.1613 27.6746 14.0625 27.4361 14.0625 27.1875V24.335C11.334 24.1003 8.79287 22.8505 6.94129 20.8328C5.08971 18.815 4.06244 16.1761 4.0625 13.4375V12.1875C4.0625 11.9389 4.16127 11.7004 4.33709 11.5246C4.5129 11.3488 4.75136 11.25 5 11.25Z" fill="white"/>
<path fill-rule="evenodd" clip-rule="evenodd" d="M15 2.5C13.0938 2.5 11.2656 3.25725 9.91767 4.60517C8.56975 5.95309 7.8125 7.78126 7.8125 9.6875V13.4375C7.8125 15.3437 8.56975 17.1719 9.91767 18.5198C11.2656 19.8677 13.0938 20.625 15 20.625C16.9062 20.625 18.7344 19.8677 20.0823 18.5198C21.4302 17.1719 22.1875 15.3437 22.1875 13.4375V9.6875C22.1875 7.78126 21.4302 5.95309 20.0823 4.60517C18.7344 3.25725 16.9062 2.5 15 2.5ZM17.5 14.375C17.7486 14.375 17.9871 14.2762 18.1629 14.1004C18.3387 13.9246 18.4375 13.6861 18.4375 13.4375C18.4375 13.1889 18.3387 12.9504 18.1629 12.7746C17.9871 12.5988 17.7486 12.5 17.5 12.5H12.5C12.2514 12.5 12.0129 12.5988 11.8371 12.7746C11.6613 12.9504 11.5625 13.1889 11.5625 13.4375C11.5625 13.6861 11.6613 13.9246 11.8371 14.1004C12.0129 14.2762 12.2514 14.375 12.5 14.375H17.5ZM17.1875 9.6875C17.1875 9.93614 17.0887 10.1746 16.9129 10.3504C16.7371 10.5262 16.4986 10.625 16.25 10.625H13.75C13.5014 10.625 13.2629 10.5262 13.0871 10.3504C12.9113 10.1746 12.8125 9.93614 12.8125 9.6875C12.8125 9.43886 12.9113 9.2004 13.0871 9.02459C13.2629 8.84877 13.5014 8.75 13.75 8.75H16.25C16.4986 8.75 16.7371 8.84877 16.9129 9.02459C17.0887 9.2004 17.1875 9.43886 17.1875 9.6875Z" fill="white"/>
</svg>
