<svg width="48" height="48" viewBox="0 0 16 16" fill="none" xmlns="http://www.w3.org/2000/svg">
<path d="M13.2884 8.69606C13.1625 9.65603 12.7777 10.5636 12.1752 11.3215C11.5727 12.0794 10.7752 12.659 9.86836 12.9981C8.9615 13.3372 7.97943 13.4231 7.02749 13.2464C6.07554 13.0698 5.18962 12.6374 4.46475 11.9956C3.73988 11.3538 3.20339 10.5267 2.91283 9.60316C2.62227 8.6796 2.58859 7.69437 2.81542 6.75312C3.04224 5.81188 3.52101 4.95013 4.20036 4.2603C4.87972 3.57047 5.73405 3.07859 6.67172 2.8374C9.27105 2.17073 11.9617 3.50873 12.955 6.00206" stroke="white" stroke-width="1.33333" stroke-linecap="round" stroke-linejoin="round"/>
<path d="M13.3333 2.66699V6.00033H10" stroke="white" stroke-width="1.33333" stroke-linecap="round" stroke-linejoin="round"/>
</svg>
